PathFileType	4	(X/Y/Z)	HSS_walk4.trc
DataRate	CameraRate	NumFrames	NumMarkers	Units	OrigDataRate	OrigDataStartFrame	OrigNumFrames
120.0	120.0	4	44	mm	120.0	722	1155
Frame#	Time		R.Shoulder		Offset		L.Shoulder		R.Elbow		R.Wrist.Radial		R.Wrist		R.Hand		L.Elbow		L.Wrist.Radial		L.Wrist		L.Hand		R.Hip		V.Sacral		L.PSIS		L.Hip		R.Thigh.Upper		R.Thigh.Front		R.Thigh.Rear		X.Shell.Lower.Thigh.Right		R.Knee.Lateral		R.Shank.Upper		R.Shank.Front		R.Shank.Rear		X.Shell.Lower.Shank.Right		R.Ankle.Lateral		R.Heel		R.Toe		L.Thigh.Upper		L.Thigh.Front		L.Thigh.Rear		X.Shell.Lower.Thigh.Left		L.Knee.Lateral		L.Shank.Upper		L.Shank.Front		L.Shank.Rear		X.Shell.Lower.Shank.Left		L.Ankle.Lateral		L.Heel		L.Toe		R.Troc		L.Troc		R.PSIS		L.ASIS		R.ASIS
			X1	Y1	Z1	X2	Y2	Z2	X3	Y3	Z3	X4	Y4	Z4	X5	Y5	Z5	X6	Y6	Z6	X7	Y7	Z7	X8	Y8	Z8	X9	Y9	Z9	X10	Y10	Z10	X11	Y11	Z11	X12	Y12	Z12	X13	Y13	Z13	X14	Y14	Z14	X15	Y15	Z15	X16	Y16	Z16	X17	Y17	Z17	X18	Y18	Z18	X19	Y19	Z19	X20	Y20	Z20	X21	Y21	Z21	X22	Y22	Z22	X23	Y23	Z23	X24	Y24	Z24	X25	Y25	Z25	X26	Y26	Z26	X27	Y27	Z27	X28	Y28	Z28	X29	Y29	Z29	X30	Y30	Z30	X31	Y31	Z31	X32	Y32	Z32	X33	Y33	Z33	X34	Y34	Z34	X35	Y35	Z35	X36	Y36	Z36	X37	Y37	Z37	X38	Y38	Z38	X39	Y39	Z39	X40	Y40	Z40	X41	Y41	Z41	X42	Y42	Z42	X43	Y43	Z43	X44	Y44	Z44

722	6.00833	1000.07068	1472.56348	-7.72598	904.88971	1377.26465	-301.39484	1030.66711	1476.13403	-376.83197	919.35461	1118.44019	25.40931	965.04932	880.85010	98.21671	1010.41602	878.08643	39.85894	995.66180	797.81781	96.44837	1096.92981	1116.40015	-436.78998	1280.72461	960.22314	-475.28629	1313.22266	974.45441	-411.52588	1353.24060	913.93329	-463.86139	1039.04370	1029.51831	-31.94523	920.34717	1004.31567	-178.79910	923.49786	1013.03912	-219.97801	1041.75562	1025.75623	-327.62735	1191.67017	714.65735	-3.94687	1237.57190	695.95428	-21.62916	1187.65369	670.02850	4.23985	1226.18958	652.57220	-14.58733	1204.49182	528.89166	-27.59632	1187.24463	378.84729	12.48856	1214.88489	336.01465	-11.37599	1155.23230	343.97803	-3.38775	1177.66907	303.76807	-13.48547	1162.72339	82.95327	-71.83878	1125.07263	48.10821	-129.98613	1309.88489	45.97359	-61.91909	1083.09802	677.84253	-324.78046	1098.60376	629.55316	-297.28906	1050.87366	643.26050	-335.73993	1073.40063	607.88629	-319.87808	994.23682	495.65607	-296.41901	925.89728	298.55576	-324.40704	947.11792	271.29916	-302.92090	887.03284	267.95740	-310.88870	903.39807	233.21964	-308.39609	877.26569	74.69170	-248.30965	815.07379	44.61381	-201.62566	1016.88379	32.50811	-232.43376	1078.58118	880.49805	-1.54605	1046.41162	881.04541	-363.00397	921.49927	1010.51917	-135.18373	1107.11267	991.04077	-289.79767	1099.90308	994.40155	-68.55744
723	6.01667	1009.90448	1470.78381	-7.50332	915.33899	1375.86707	-301.34097	1041.12427	1474.93188	-376.49448	925.56775	1117.86414	24.72633	966.99280	879.69342	98.01762	1012.22260	875.95538	39.67906	996.04840	795.98792	96.14488	1112.41907	1116.13843	-436.89929	1300.68872	964.82404	-474.36795	1332.30554	980.44800	-411.65646	1374.80212	921.13489	-463.19681	1050.63159	1027.95410	-31.61410	931.15375	1003.23309	-177.62146	933.83429	1011.78809	-218.82524	1051.52844	1024.32251	-327.49490	1201.12317	711.98993	-4.94450	1246.85388	692.74744	-22.50174	1196.35962	667.14935	2.89606	1234.91650	649.54364	-15.85258	1213.70984	526.43805	-29.24693	1205.74585	376.25543	11.93998	1235.47009	334.92432	-12.61821	1175.75879	339.56631	-3.05781	1200.43115	300.56689	-13.59844	1198.72888	78.59524	-70.70405	1161.43005	41.76439	-128.09822	1347.93018	49.05949	-65.21288	1088.97510	676.57373	-325.19647	1104.29016	627.99554	-298.18033	1056.01294	642.24390	-336.96692	1078.71912	606.73798	-320.51605	998.62231	495.00748	-296.57883	928.19458	298.66821	-324.35208	949.29388	271.11209	-302.84705	889.01819	268.46970	-310.86002	905.14386	233.46979	-308.38303	877.73981	75.03635	-248.21613	815.26306	45.43790	-201.50862	1016.94312	32.50285	-232.52322	1090.05261	878.65845	-1.30252	1055.18201	879.88257	-363.11658	932.35876	1009.01105	-134.11227	1116.72437	989.74231	-290.05130	1111.50476	992.90674	-68.51646
724	6.02500	1019.91162	1468.89197	-7.26297	925.87097	1374.29565	-301.19415	1051.63245	1473.78064	-375.84711	932.17230	1117.27991	24.26650	969.35492	878.50153	97.89365	1014.63763	873.95148	39.66563	996.76025	794.19232	96.07805	1127.75916	1115.68384	-437.13934	1320.28430	969.31000	-473.36572	1351.96057	986.81476	-411.26401	1395.91895	928.36456	-462.42258	1062.45874	1026.15820	-31.42358	942.20642	1001.82458	-176.60806	944.40009	1010.46057	-217.87390	1061.28589	1022.90430	-327.22888	1210.15271	708.65851	-5.76238	1255.63672	688.97980	-23.30573	1204.65918	663.82092	1.69438	1243.08142	645.81702	-16.89552	1222.54138	523.63910	-31.09083	1224.12146	374.16565	11.24759	1256.17688	334.52737	-13.74777	1196.13013	335.53693	-2.98416	1222.43896	298.07498	-13.61449	1234.16394	75.74728	-69.74496	1197.03857	37.18847	-125.32073	1384.98621	53.42956	-69.22237	1095.18750	675.21198	-325.65298	1110.13159	626.44702	-298.92288	1061.64697	641.31238	-337.20181	1084.00098	605.45148	-321.09457	1003.09058	494.33417	-296.74628	930.66077	298.69400	-324.44794	951.58875	271.06073	-303.17563	891.28040	268.91476	-310.96152	907.07605	233.78275	-308.45929	878.20215	75.53766	-248.09866	815.42889	46.37417	-201.43582	1017.02966	32.47565	-232.46513	1101.52258	876.62579	-0.99174	1064.13416	878.54175	-362.91653	943.49988	1007.56433	-132.88100	1126.71167	988.08746	-289.99753	1123.11804	991.15417	-68.33692
725	6.03333	1030.06396	1466.82141	-7.00943	936.46649	1372.62781	-300.98444	1061.99951	1472.47632	-375.31946	938.87744	1116.46069	23.80670	972.08051	877.24500	97.87420	1016.88843	871.99963	39.81060	997.95532	792.48303	95.83132	1142.74622	1115.29553	-437.24927	1339.50745	973.88000	-472.31244	1371.19507	993.43573	-411.16690	1416.47498	935.54150	-461.58081	1074.68921	1024.24170	-31.11354	953.34363	1000.56909	-175.55200	955.12445	1008.79114	-216.85191	1071.15381	1021.29742	-327.10632	1218.75232	704.82690	-6.49653	1263.97644	684.55658	-23.71959	1212.65820	660.28961	0.67922	1250.80273	641.57513	-17.89403	1231.08679	520.47876	-32.87931	1242.04980	372.73462	10.46192	1275.77417	334.78598	-14.95152	1215.81189	332.16119	-2.89716	1244.29187	296.55231	-13.77515	1268.58765	74.47787	-68.65917	1232.02734	33.99870	-122.81229	1420.59229	59.06343	-73.18098	1101.29956	673.81781	-326.39597	1115.90430	624.97473	-299.64240	1067.47424	640.22296	-337.77859	1089.67017	604.17456	-321.74036	1007.80573	493.72147	-297.05579	933.44592	298.69519	-324.53595	953.92163	270.95947	-303.26239	893.62579	269.22983	-311.00327	909.07043	234.03564	-308.41791	878.43109	75.96808	-248.09140	815.60443	47.34629	-201.35637	1017.11896	32.50480	-232.52283	1113.00525	874.42798	-0.63689	1072.94055	877.30530	-363.14209	954.71490	1005.84827	-131.92783	1136.95178	986.25922	-290.05408	1134.81958	989.23248	-68.38264
